<svg width="215" height="42" viewBox="0 0 215 42" fill="none" xmlns="http://www.w3.org/2000/svg">
<path fill-rule="evenodd" clip-rule="evenodd" d="M25.7 11.7C24.1 10.6 22.1 10 20.1 10V0C24.1 0 27.9 1.2 31.2 3.4C34.5 5.6 37.1 8.69999 38.6 12.4C40.1 16.1 40.5 20.1 39.7 24C38.9 27.9 37 31.4 34.2 34.2C31.4 37 27.8 38.9 24 39.7C20.1 40.5 16.1 40.1 12.4 38.6C8.7 37.1 5.6 34.5 3.4 31.2C1.2 27.9 0 24 0 20.1H10C10 22.1 10.6 24 11.7 25.7C12.8 27.4 14.4 28.6 16.2 29.4C18 30.2 20 30.4 22 30C23.9 29.6 25.7 28.7 27.1 27.3C28.5 25.9 29.5 24.1 29.8 22.2C30.2 20.3 30 18.2 29.2 16.4C28.6 14.4 27.3 12.8 25.7 11.7Z" fill="#007DFC"/>
<path fill-rule="evenodd" clip-rule="evenodd" d="M10.1 0C10.1 1.3 9.80001 2.6 9.30001 3.8C8.80001 5 8.10001 6.1 7.10001 7C6.20001 7.9 5.10001 8.7 3.90001 9.2C2.70001 9.7 1.40001 10 0.100006 10V20C2.70001 20 5.30001 19.5 7.80001 18.5C10.3 17.5 12.4 16 14.3 14.2C16.2 12.3 17.6 10.1 18.6 7.7C19.6 5.3 20.1 2.7 20.1 0H10.1Z" fill="#007DFC"/>
<path d="M77.5178 30.1228H72.5334V16.7166C72.5334 15.2686 72.5959 13.6697 72.7209 11.9197H72.5959C72.3355 13.2947 72.1011 14.2843 71.8928 14.8884L66.6428 30.1228H62.5178L57.174 15.0447C57.0282 14.6384 56.7938 13.5968 56.4709 11.9197H56.3303C56.4657 14.128 56.5334 16.0655 56.5334 17.7322V30.1228H51.9865V7.71655H59.3771L63.9553 20.9978C64.3198 22.0603 64.5855 23.128 64.7521 24.2009H64.8459C65.1271 22.9613 65.424 21.8832 65.7365 20.9666L70.3146 7.71655H77.5178V30.1228ZM87.6584 22.4041V30.1228H82.6115V7.71655H90.5178C96.1636 7.71655 98.9865 10.0968 98.9865 14.8572C98.9865 17.1072 98.174 18.9301 96.549 20.3259C94.9344 21.7113 92.773 22.4041 90.0646 22.4041H87.6584ZM87.6584 11.5916V18.5759H89.6428C92.3303 18.5759 93.674 17.3988 93.674 15.0447C93.674 12.7426 92.3303 11.5916 89.6428 11.5916H87.6584ZM101.237 29.2634V24.2634C102.143 25.0238 103.127 25.5968 104.19 25.9822C105.252 26.3572 106.325 26.5447 107.408 26.5447C108.044 26.5447 108.596 26.4874 109.065 26.3728C109.544 26.2582 109.94 26.102 110.252 25.9041C110.575 25.6957 110.815 25.4561 110.971 25.1853C111.127 24.9041 111.205 24.602 111.205 24.2791C111.205 23.8416 111.08 23.4509 110.83 23.1072C110.58 22.7634 110.237 22.4457 109.799 22.1541C109.372 21.8624 108.862 21.5811 108.268 21.3103C107.674 21.0395 107.033 20.7634 106.346 20.4822C104.596 19.753 103.289 18.8624 102.424 17.8103C101.57 16.7582 101.143 15.4874 101.143 13.9978C101.143 12.8311 101.377 11.8311 101.846 10.9978C102.315 10.1541 102.95 9.46134 103.752 8.91968C104.565 8.37801 105.502 7.98218 106.565 7.73218C107.627 7.47176 108.752 7.34155 109.94 7.34155C111.106 7.34155 112.138 7.41447 113.033 7.5603C113.94 7.69572 114.773 7.90926 115.533 8.20093V12.8728C115.158 12.6124 114.747 12.3832 114.299 12.1853C113.862 11.9874 113.408 11.8259 112.94 11.7009C112.471 11.5655 112.002 11.4666 111.533 11.4041C111.075 11.3416 110.638 11.3103 110.221 11.3103C109.648 11.3103 109.127 11.3676 108.658 11.4822C108.19 11.5863 107.794 11.7374 107.471 11.9353C107.148 12.1332 106.898 12.3728 106.721 12.6541C106.544 12.9249 106.455 13.2322 106.455 13.5759C106.455 13.9509 106.554 14.2895 106.752 14.5916C106.95 14.8832 107.231 15.1645 107.596 15.4353C107.96 15.6957 108.403 15.9561 108.924 16.2166C109.445 16.4666 110.033 16.727 110.69 16.9978C111.585 17.3728 112.388 17.7738 113.096 18.2009C113.815 18.6176 114.429 19.0916 114.94 19.6228C115.45 20.1541 115.841 20.7634 116.112 21.4509C116.382 22.128 116.518 22.9197 116.518 23.8259C116.518 25.0759 116.278 26.128 115.799 26.9822C115.33 27.8259 114.69 28.5134 113.877 29.0447C113.065 29.5655 112.117 29.9405 111.033 30.1697C109.96 30.3988 108.825 30.5134 107.627 30.5134C106.398 30.5134 105.226 30.4093 104.112 30.2009C103.007 29.9926 102.049 29.6801 101.237 29.2634Z" fill="#007DFC"/>
<path d="M133.396 30.4983C130.219 30.4983 127.672 29.4514 125.756 27.3577C123.849 25.2639 122.896 22.54 122.896 19.1858C122.896 15.5816 123.87 12.7066 125.818 10.5608C127.766 8.41496 130.417 7.34204 133.771 7.34204C136.865 7.34204 139.355 8.38371 141.24 10.467C143.136 12.5504 144.084 15.2743 144.084 18.6389C144.084 22.2952 143.115 25.1858 141.177 27.3108C139.24 29.4358 136.646 30.4983 133.396 30.4983ZM133.584 9.71704C131.23 9.71704 129.318 10.566 127.849 12.2639C126.381 13.9618 125.646 16.191 125.646 18.9514C125.646 21.7118 126.36 23.9358 127.787 25.6233C129.224 27.3004 131.094 28.1389 133.396 28.1389C135.855 28.1389 137.792 27.3368 139.209 25.7327C140.625 24.1285 141.334 21.8837 141.334 18.9983C141.334 16.04 140.646 13.7535 139.271 12.1389C137.896 10.5243 136 9.71704 133.584 9.71704ZM161.427 30.1233H158.865V20.9983C158.865 17.6025 157.625 15.9045 155.146 15.9045C153.865 15.9045 152.802 16.3889 151.959 17.3577C151.125 18.316 150.709 19.5295 150.709 20.9983V30.1233H148.146V14.1233H150.709V16.7795H150.771C151.98 14.7587 153.73 13.7483 156.021 13.7483C157.771 13.7483 159.11 14.316 160.037 15.4514C160.964 16.5764 161.427 18.2066 161.427 20.342V30.1233ZM168.834 30.1233H166.271V6.43579H168.834V30.1233ZM175.334 10.0608C174.875 10.0608 174.485 9.90454 174.162 9.59204C173.839 9.27954 173.677 8.88371 173.677 8.40454C173.677 7.92537 173.839 7.52954 174.162 7.21704C174.485 6.89412 174.875 6.73267 175.334 6.73267C175.802 6.73267 176.198 6.89412 176.521 7.21704C176.855 7.52954 177.021 7.92537 177.021 8.40454C177.021 8.86287 176.855 9.2535 176.521 9.57642C176.198 9.89933 175.802 10.0608 175.334 10.0608ZM176.584 30.1233H174.021V14.1233H176.584V30.1233ZM195.052 30.1233H192.49V20.9983C192.49 17.6025 191.25 15.9045 188.771 15.9045C187.49 15.9045 186.427 16.3889 185.584 17.3577C184.75 18.316 184.334 19.5295 184.334 20.9983V30.1233H181.771V14.1233H184.334V16.7795H184.396C185.605 14.7587 187.355 13.7483 189.646 13.7483C191.396 13.7483 192.735 14.316 193.662 15.4514C194.589 16.5764 195.052 18.2066 195.052 20.342V30.1233ZM212.756 22.7639H201.459C201.5 24.5452 201.98 25.9202 202.896 26.8889C203.813 27.8577 205.073 28.342 206.677 28.342C208.48 28.342 210.136 27.7483 211.646 26.5608V28.967C210.24 29.9879 208.381 30.4983 206.068 30.4983C203.808 30.4983 202.032 29.7743 200.74 28.3264C199.448 26.8681 198.802 24.8212 198.802 22.1858C198.802 19.6962 199.506 17.6702 200.912 16.1077C202.328 14.5347 204.084 13.7483 206.177 13.7483C208.271 13.7483 209.891 14.4254 211.037 15.7795C212.183 17.1337 212.756 19.0139 212.756 21.4202V22.7639ZM210.131 20.592C210.12 19.1129 209.761 17.9618 209.052 17.1389C208.355 16.316 207.381 15.9045 206.131 15.9045C204.922 15.9045 203.896 16.3368 203.052 17.2014C202.209 18.066 201.688 19.1962 201.49 20.592H210.131Z" fill="#007DFC"/>
</svg>
