<svg width="215" height="42" viewBox="0 0 215 42" fill="none" xmlns="http://www.w3.org/2000/svg">
<path fill-rule="evenodd" clip-rule="evenodd" d="M26.2 12.2C24.6 11.1 22.6 10.5 20.6 10.5V0.5C24.6 0.5 28.4 1.7 31.7 3.9C35 6.1 37.6 9.19999 39.1 12.9C40.6 16.6 41 20.6 40.2 24.5C39.4 28.4 37.5 31.9 34.7 34.7C31.9 37.5 28.3 39.4 24.5 40.2C20.6 41 16.6 40.6 12.9 39.1C9.2 37.6 6.1 35 3.9 31.7C1.7 28.4 0.5 24.5 0.5 20.6H10.5C10.5 22.6 11.1 24.5 12.2 26.2C13.3 27.9 14.9 29.1 16.7 29.9C18.5 30.7 20.5 30.9 22.5 30.5C24.4 30.1 26.2 29.2 27.6 27.8C29 26.4 30 24.6 30.3 22.7C30.7 20.8 30.5 18.7 29.7 16.9C29.1 14.9 27.8 13.3 26.2 12.2Z" fill="white"/>
<path fill-rule="evenodd" clip-rule="evenodd" d="M10.6 0.5C10.6 1.8 10.3 3.1 9.80001 4.3C9.30001 5.5 8.60001 6.6 7.60001 7.5C6.70001 8.4 5.60001 9.2 4.40001 9.7C3.20001 10.2 1.90001 10.5 0.600006 10.5V20.5C3.20001 20.5 5.80001 20 8.30001 19C10.8 18 12.9 16.5 14.8 14.7C16.7 12.8 18.1 10.6 19.1 8.2C20.1 5.8 20.6 3.2 20.6 0.5H10.6Z" fill="white"/>
<path d="M78.0178 30.6228H73.0334V17.2166C73.0334 15.7686 73.0959 14.1697 73.2209 12.4197H73.0959C72.8355 13.7947 72.6011 14.7843 72.3928 15.3884L67.1428 30.6228H63.0178L57.674 15.5447C57.5282 15.1384 57.2938 14.0968 56.9709 12.4197H56.8303C56.9657 14.628 57.0334 16.5655 57.0334 18.2322V30.6228H52.4865V8.21655H59.8771L64.4553 21.4978C64.8198 22.5603 65.0855 23.628 65.2521 24.7009H65.3459C65.6271 23.4613 65.924 22.3832 66.2365 21.4666L70.8146 8.21655H78.0178V30.6228ZM88.1584 22.9041V30.6228H83.1115V8.21655H91.0178C96.6636 8.21655 99.4865 10.5968 99.4865 15.3572C99.4865 17.6072 98.674 19.4301 97.049 20.8259C95.4344 22.2113 93.273 22.9041 90.5646 22.9041H88.1584ZM88.1584 12.0916V19.0759H90.1428C92.8303 19.0759 94.174 17.8988 94.174 15.5447C94.174 13.2426 92.8303 12.0916 90.1428 12.0916H88.1584ZM101.737 29.7634V24.7634C102.643 25.5238 103.627 26.0968 104.69 26.4822C105.752 26.8572 106.825 27.0447 107.908 27.0447C108.544 27.0447 109.096 26.9874 109.565 26.8728C110.044 26.7582 110.44 26.602 110.752 26.4041C111.075 26.1957 111.315 25.9561 111.471 25.6853C111.627 25.4041 111.705 25.102 111.705 24.7791C111.705 24.3416 111.58 23.9509 111.33 23.6072C111.08 23.2634 110.737 22.9457 110.299 22.6541C109.872 22.3624 109.362 22.0811 108.768 21.8103C108.174 21.5395 107.533 21.2634 106.846 20.9822C105.096 20.253 103.789 19.3624 102.924 18.3103C102.07 17.2582 101.643 15.9874 101.643 14.4978C101.643 13.3311 101.877 12.3311 102.346 11.4978C102.815 10.6541 103.45 9.96134 104.252 9.41968C105.065 8.87801 106.002 8.48218 107.065 8.23218C108.127 7.97176 109.252 7.84155 110.44 7.84155C111.606 7.84155 112.638 7.91447 113.533 8.0603C114.44 8.19572 115.273 8.40926 116.033 8.70093V13.3728C115.658 13.1124 115.247 12.8832 114.799 12.6853C114.362 12.4874 113.908 12.3259 113.44 12.2009C112.971 12.0655 112.502 11.9666 112.033 11.9041C111.575 11.8416 111.138 11.8103 110.721 11.8103C110.148 11.8103 109.627 11.8676 109.158 11.9822C108.69 12.0863 108.294 12.2374 107.971 12.4353C107.648 12.6332 107.398 12.8728 107.221 13.1541C107.044 13.4249 106.955 13.7322 106.955 14.0759C106.955 14.4509 107.054 14.7895 107.252 15.0916C107.45 15.3832 107.731 15.6645 108.096 15.9353C108.46 16.1957 108.903 16.4561 109.424 16.7166C109.945 16.9666 110.533 17.227 111.19 17.4978C112.085 17.8728 112.888 18.2738 113.596 18.7009C114.315 19.1176 114.929 19.5916 115.44 20.1228C115.95 20.6541 116.341 21.2634 116.612 21.9509C116.882 22.628 117.018 23.4197 117.018 24.3259C117.018 25.5759 116.778 26.628 116.299 27.4822C115.83 28.3259 115.19 29.0134 114.377 29.5447C113.565 30.0655 112.617 30.4405 111.533 30.6697C110.46 30.8988 109.325 31.0134 108.127 31.0134C106.898 31.0134 105.726 30.9093 104.612 30.7009C103.507 30.4926 102.549 30.1801 101.737 29.7634Z" fill="white"/>
<path d="M133.896 30.9983C130.719 30.9983 128.172 29.9514 126.256 27.8577C124.349 25.7639 123.396 23.04 123.396 19.6858C123.396 16.0816 124.37 13.2066 126.318 11.0608C128.266 8.91496 130.917 7.84204 134.271 7.84204C137.365 7.84204 139.855 8.88371 141.74 10.967C143.636 13.0504 144.584 15.7743 144.584 19.1389C144.584 22.7952 143.615 25.6858 141.677 27.8108C139.74 29.9358 137.146 30.9983 133.896 30.9983ZM134.084 10.217C131.73 10.217 129.818 11.066 128.349 12.7639C126.881 14.4618 126.146 16.691 126.146 19.4514C126.146 22.2118 126.86 24.4358 128.287 26.1233C129.724 27.8004 131.594 28.6389 133.896 28.6389C136.355 28.6389 138.292 27.8368 139.709 26.2327C141.125 24.6285 141.834 22.3837 141.834 19.4983C141.834 16.54 141.146 14.2535 139.771 12.6389C138.396 11.0243 136.5 10.217 134.084 10.217ZM161.927 30.6233H159.365V21.4983C159.365 18.1025 158.125 16.4045 155.646 16.4045C154.365 16.4045 153.302 16.8889 152.459 17.8577C151.625 18.816 151.209 20.0295 151.209 21.4983V30.6233H148.646V14.6233H151.209V17.2795H151.271C152.48 15.2587 154.23 14.2483 156.521 14.2483C158.271 14.2483 159.61 14.816 160.537 15.9514C161.464 17.0764 161.927 18.7066 161.927 20.842V30.6233ZM169.334 30.6233H166.771V6.93579H169.334V30.6233ZM175.834 10.5608C175.375 10.5608 174.985 10.4045 174.662 10.092C174.339 9.77954 174.177 9.38371 174.177 8.90454C174.177 8.42537 174.339 8.02954 174.662 7.71704C174.985 7.39412 175.375 7.23267 175.834 7.23267C176.302 7.23267 176.698 7.39412 177.021 7.71704C177.355 8.02954 177.521 8.42537 177.521 8.90454C177.521 9.36287 177.355 9.7535 177.021 10.0764C176.698 10.3993 176.302 10.5608 175.834 10.5608ZM177.084 30.6233H174.521V14.6233H177.084V30.6233ZM195.552 30.6233H192.99V21.4983C192.99 18.1025 191.75 16.4045 189.271 16.4045C187.99 16.4045 186.927 16.8889 186.084 17.8577C185.25 18.816 184.834 20.0295 184.834 21.4983V30.6233H182.271V14.6233H184.834V17.2795H184.896C186.105 15.2587 187.855 14.2483 190.146 14.2483C191.896 14.2483 193.235 14.816 194.162 15.9514C195.089 17.0764 195.552 18.7066 195.552 20.842V30.6233ZM213.256 23.2639H201.959C202 25.0452 202.48 26.4202 203.396 27.3889C204.313 28.3577 205.573 28.842 207.177 28.842C208.98 28.842 210.636 28.2483 212.146 27.0608V29.467C210.74 30.4879 208.881 30.9983 206.568 30.9983C204.308 30.9983 202.532 30.2743 201.24 28.8264C199.948 27.3681 199.302 25.3212 199.302 22.6858C199.302 20.1962 200.006 18.1702 201.412 16.6077C202.828 15.0347 204.584 14.2483 206.677 14.2483C208.771 14.2483 210.391 14.9254 211.537 16.2795C212.683 17.6337 213.256 19.5139 213.256 21.9202V23.2639ZM210.631 21.092C210.62 19.6129 210.261 18.4618 209.552 17.6389C208.855 16.816 207.881 16.4045 206.631 16.4045C205.422 16.4045 204.396 16.8368 203.552 17.7014C202.709 18.566 202.188 19.6962 201.99 21.092H210.631Z" fill="white"/>
</svg>
